<?xml version="1.0" standalone="no"?><!DOCTYPE svg PUBLIC "-//W3C//DTD SVG 1.1//EN" "http://www.w3.org/Graphics/SVG/1.1/DTD/svg11.dtd"><svg t="1669903587598" class="icon" viewBox="0 0 1024 1024" version="1.1" xmlns="http://www.w3.org/2000/svg" p-id="11212" xmlns:xlink="http://www.w3.org/1999/xlink" width="200" height="200"><path d="M968.533333 247.466667L896 219.733333l-17.066667-59.733333c-2.133333-6.4-8.533333-12.8-14.933333-14.933333L804.266667 128l-27.733334-72.533333c-4.266667-10.666667-14.933333-14.933333-25.6-12.8l-96 29.866666c-8.533333 2.133333-14.933333 10.666667-14.933333 21.333334l6.4 157.866666-166.4-25.6c-6.4 0-12.8 2.133333-19.2 6.4l-115.2 115.2h-2.133333v2.133334l-113.066667 113.066666c-4.266667 4.266667-6.4 10.666667-6.4 19.2l25.6 166.4-155.733333-8.533333c-10.666667 0-19.2 6.4-21.333334 14.933333L42.666667 750.933333c-2.133333 10.666667 2.133333 21.333333 12.8 25.6L128 804.266667l17.066667 59.733333c2.133333 6.4 8.533333 12.8 14.933333 14.933333l59.733333 17.066667 27.733334 72.533333c4.266667 8.533333 10.666667 12.8 19.2 12.8h6.4l96-29.866666c8.533333-2.133333 14.933333-10.666667 14.933333-21.333334l-6.4-157.866666 166.4 25.6h4.266667c6.4 0 10.666667-2.133333 14.933333-6.4l230.4-230.4c4.266667-4.266667 6.4-10.666667 6.4-19.2l-25.6-166.4 157.866667 6.4c8.533333 0 17.066667-6.4 21.333333-14.933334l29.866667-96c0-8.533333-4.266667-19.2-14.933334-23.466666zM279.466667 934.4l-23.466667-64c-2.133333-6.4-8.533333-10.666667-14.933333-12.8l-59.733334-17.066667-17.066666-59.733333c-2.133333-6.4-6.4-10.666667-12.8-14.933333l-64-23.466667 21.333333-59.733333 160 6.4 10.666667 10.666666-76.8 32 17.066666 38.4 66.133334-27.733333-19.2 78.933333 40.533333 10.666667 21.333333-83.2 6.4 6.4 6.4 160-61.866666 19.2z m260.266666-179.2l-172.8-25.6-72.533333-72.533333-25.6-172.8 93.866667-93.866667 104.533333 6.4 6.4 125.866667c0 10.666667 8.533333 19.2 19.2 19.2l125.866667 6.4 6.4 119.466666-85.333334 87.466667z m128-128l-6.4-98.133333c0-10.666667-8.533333-19.2-19.2-19.2l-125.866666-6.4-6.4-125.866667c0-10.666667-8.533333-19.2-19.2-19.2l-85.333334-4.266667 81.066667-81.066666 172.8 25.6 72.533333 72.533333 25.6 172.8-89.6 83.2zM915.2 341.333333l-160-6.4-6.4-6.4 83.2-21.333333-10.666667-40.533333-78.933333 19.2 27.733333-66.133334-38.4-17.066666-32 76.8-10.666666-10.666667-6.4-160 61.866666-19.2 23.466667 64c2.133333 6.4 8.533333 10.666667 14.933333 12.8l59.733334 17.066667 17.066666 59.733333c2.133333 6.4 6.4 10.666667 12.8 14.933333l64 23.466667-21.333333 59.733333z" p-id="11213" fill="#de4313"></path></svg>